<?xml version="1.0" encoding="UTF-8"?>
<svg id="Layer_1" xmlns="http://www.w3.org/2000/svg" version="1.1" viewBox="0 0 170.34 147.63">
  <!-- Generator: Adobe Illustrator 30.5.1, SVG Export Plug-In . SVG Version: 2.1.4 Build 3)  -->
  <defs>
    <style>
      .st0 {
        fill: #1f3a6f;
      }
    </style>
  </defs>
  <path class="st0" d="M90.98,44.19l29.65-4.95c9.35-1.56,19.9-8.99,23.56-16.59h0s-46.59,7.77-46.59,7.77c-9.81,1.64-21.04,7.62-26.32,15.82L26.14,124.97l15.56-21.26c5.76-8.96,16.11-15.71,26.82-17.5l32.4-5.4c10.22-1.7,21.75-9.82,25.75-18.13h0s-50.9,8.49-50.9,8.49c-8.82,1.47-15.66,4.92-21.63,11.58l2.76-4.28c4.91-7.64,12.01-12.01,21.14-13.54l27.61-4.61c8.71-1.45,18.53-8.37,21.94-15.45h0s-43.38,7.24-43.38,7.24c-7.16,1.19-13.66,4.84-18.7,10.09l1.38-2.15c5.28-8.2,14.28-14.23,24.09-15.87Z"/>
</svg>